<svg version="1.1" xmlns="http://www.w3.org/2000/svg" x="0px" y="0px"
     viewBox="0 0 512 512" style="enable-background:new 0 0 512 512;" xml:space="preserve">
<path d="M44.3,340.8c2.9,7.2-0.6,15.3-7.8,18.2c-1.7,0.7-3.5,1-5.2,1c-5.6,0-10.8-3.3-13-8.8c-4.2-10.4-7.7-21.3-10.5-32.2
	c-1.9-7.5,2.6-15.1,10.1-17c7.5-1.9,15.1,2.6,17,10.1C37.4,321.9,40.6,331.5,44.3,340.8z M56.2,118.7c-6.6-4-15.2-1.9-19.2,4.7
	c-5.8,9.6-11.1,19.7-15.6,30c-3.1,7.1,0.1,15.3,7.2,18.4c1.8,0.8,3.7,1.2,5.6,1.2c5.4,0,10.5-3.1,12.8-8.4c4-9.2,8.7-18.2,13.9-26.7
	C64.9,131.3,62.8,122.7,56.2,118.7z M14,266.3c7.6,0,13.9-6.1,14-13.8c0.2-10.1,1-20.2,2.4-30.1c1.1-7.6-4.2-14.8-11.8-15.9
	c-7.6-1.1-14.8,4.2-15.9,11.8c-1.6,11.1-2.6,22.4-2.7,33.7c-0.1,7.7,6.1,14.1,13.8,14.2C13.9,266.3,14,266.3,14,266.3z M73.8,393.1
	c-4.7-6.2-13.4-7.4-19.6-2.7c-6.2,4.7-7.4,13.4-2.7,19.6c6.8,9,14.2,17.6,22.1,25.6c2.7,2.8,6.4,4.2,10,4.2c3.5,0,7.1-1.3,9.8-4
	c5.5-5.4,5.6-14.3,0.2-19.8C86.5,408.8,79.9,401.1,73.8,393.1z M167.9,466.4c-9.2-3.9-18.3-8.4-26.9-13.5c-6.7-3.9-15.2-1.7-19.2,5
	c-3.9,6.7-1.7,15.2,5,19.2c9.7,5.7,19.9,10.8,30.3,15.1c1.8,0.7,3.6,1.1,5.4,1.1c5.5,0,10.7-3.2,12.9-8.6
	C178.4,477.6,175,469.4,167.9,466.4z M437,75C388.7,26.6,324.4,0,256,0C198.4,0,143.6,18.9,98.9,53.8V14c0-7.7-6.3-14-14-14
	s-14,6.3-14,14v70.9c0,0,0,0,0,0c0,0.4,0,0.9,0.1,1.3c0,0.2,0.1,0.4,0.1,0.6c0,0.2,0.1,0.5,0.1,0.7c0,0.2,0.1,0.5,0.2,0.7
	c0.1,0.2,0.1,0.4,0.2,0.6c0.1,0.2,0.2,0.5,0.2,0.7c0.1,0.2,0.1,0.4,0.2,0.6c0.1,0.2,0.2,0.4,0.3,0.6c0.1,0.2,0.2,0.4,0.3,0.6
	c0.1,0.2,0.2,0.4,0.3,0.6c0.1,0.2,0.2,0.4,0.4,0.6c0.1,0.2,0.3,0.4,0.4,0.6c0.1,0.2,0.2,0.3,0.4,0.5c0.6,0.7,1.2,1.4,2,2
	c0.2,0.1,0.3,0.2,0.5,0.4c0.2,0.2,0.4,0.3,0.6,0.4c0.2,0.1,0.4,0.2,0.6,0.4c0.2,0.1,0.4,0.2,0.6,0.3c0.2,0.1,0.4,0.2,0.6,0.3
	c0.2,0.1,0.4,0.2,0.6,0.3c0.2,0.1,0.4,0.2,0.6,0.2c0.2,0.1,0.4,0.2,0.7,0.2c0.2,0.1,0.4,0.1,0.6,0.2c0.2,0.1,0.5,0.1,0.7,0.2
	c0.3,0,0.5,0.1,0.8,0.1c0.2,0,0.4,0.1,0.6,0.1c0.5,0,0.9,0.1,1.4,0.1h70.9c7.7,0,14-6.3,14-14s-6.3-14-14-14h-32.9
	C161.4,43,207.5,28,256,28c60.9,0,118.2,23.7,161.2,66.8S484,195.1,484,256c0,60.9-23.7,118.2-66.8,161.2S316.9,484,256,484
	c-10.1,0-20.2-0.7-30.1-2c-7.7-1-14.7,4.4-15.7,12.1s4.4,14.7,12.1,15.7c11.1,1.5,22.4,2.2,33.7,2.2c68.4,0,132.7-26.6,181-75
	s75-112.6,75-181S485.4,123.3,437,75z"/>
</svg>
