<?xml version="1.0" encoding="utf-8"?>
<svg viewBox="0 0 500 500" xmlns="http://www.w3.org/2000/svg">
  <ellipse style="stroke-width: 0px; paint-order: stroke; stroke: rgb(165, 165, 165); fill: rgb(165, 165, 165);" cx="250" cy="250" rx="250" ry="250"/>
  <g transform="matrix(0.054932, 0, 0, -0.054595, 56.807323, 441.027924)" fill="#000000" stroke="none" style="">
    <path d="M1753 5855 c-56 -71 -111 -141 -122 -155 -11 -14 -133 -169 -271 -345 -138 -176 -263 -335 -278 -354 -15 -19 -123 -156 -241 -305 -117 -149 -226 -287 -241 -306 -15 -19 -105 -134 -200 -255 -94 -121 -177 -227 -183 -235 -7 -8 -43 -54 -80 -103 l-68 -87 26 -10 c24 -9 100 -16 285 -26 47 -3 671 -6 1388 -8 l1303 -4 97 121 c53 67 103 128 109 137 24 28 428 536 453 569 14 18 35 44 48 59 12 15 42 52 65 82 23 30 44 57 47 60 3 3 48 59 100 125 52 66 100 127 106 135 54 67 179 227 219 280 27 36 52 67 55 70 7 6 288 365 407 522 63 82 79 109 69 117 -12 10 -56 17 -156 26 -103 9 -939 17 -1855 19 l-980 1 -102 -130z m2169 -338 c15 -1 29 -5 32 -8 5 -5 -132 -184 -384 -504 -120 -151 -93 -118 -274 -345 -299 -374 -341 -427 -371 -466 -16 -21 -43 -53 -60 -70 l-30 -30 -760 2 c-854 2 -1015 7 -1068 36 -16 8 -15 14 20 61 21 29 45 61 55 72 9 11 48 61 86 110 58 74 291 370 323 409 5 6 64 79 131 161 101 124 182 226 261 325 109 138 159 199 179 218 24 22 33 22 279 28 140 4 255 7 256 8 3 3 1298 -4 1325 -7z" style="fill: rgb(255, 255, 255);"/>
    <path d="M5190 5503 c-95 -102 -168 -202 -186 -252 -15 -45 -7 -61 77 -162 33 -41 78 -94 99 -119 146 -176 363 -433 615 -730 77 -91 149 -176 160 -189 11 -13 38 -45 60 -70 22 -26 60 -71 85 -100 25 -30 50 -59 56 -65 21 -22 34 -55 25 -61 -14 -8 -670 -16 -1598 -19 -588 -2 -816 -6 -826 -14 -7 -6 -40 -48 -72 -93 -79 -110 -79 -119 13 -248 l73 -101 692 0 c998 0 1464 -8 1609 -26 38 -5 46 -9 41 -22 -14 -34 -542 -718 -690 -892 -12 -14 -49 -59 -83 -100 -34 -41 -68 -84 -77 -95 -9 -10 -76 -95 -150 -187 l-133 -168 116 -152 c136 -179 171 -218 196 -218 29 0 -12 -49 513 605 160 198 295 367 302 375 6 8 27 33 45 56 47 57 84 104 179 224 46 58 87 110 92 115 4 6 74 94 155 196 81 102 203 257 272 344 69 87 128 163 132 170 6 9 -48 85 -121 170 -9 12 -71 88 -136 170 -66 83 -122 152 -125 155 -3 3 -41 50 -85 105 -44 55 -82 102 -85 105 -3 3 -77 95 -165 205 -88 110 -162 202 -165 205 -3 3 -61 75 -130 160 -174 217 -491 601 -569 690 -88 100 -108 120 -120 120 -5 0 -46 -39 -91 -87z" style="fill: rgb(255, 255, 255);"/>
    <path d="M737 3344 c-1 -1 -152 -4 -336 -7 -331 -5 -367 -9 -344 -39 5 -7 61 -83 124 -168 62 -85 116 -157 119 -160 3 -3 37 -45 75 -95 38 -49 101 -128 140 -175 40 -47 240 -299 445 -560 466 -592 691 -873 813 -1016 l96 -111 492 2 c424 3 2114 15 2417 19 56 0 102 2 102 4 0 6 -419 542 -579 742 -50 62 -235 296 -259 327 -12 16 -33 43 -46 59 -29 36 -230 286 -271 338 -16 21 -40 50 -51 64 -12 15 -79 99 -148 187 -70 88 -132 167 -139 175 -7 8 -37 47 -67 85 -30 39 -59 75 -65 82 -5 6 -21 26 -35 44 -14 18 -55 71 -92 118 l-67 86 -1161 0 c-639 0 -1162 -1 -1163 -1z m2102 -470 c68 -74 882 -1109 1014 -1289 83 -113 87 -120 65 -126 -36 -8 -314 -12 -978 -12 -698 -1 -826 5 -889 38 -16 8 -76 76 -133 151 -123 162 -144 189 -185 240 -182 225 -752 946 -756 957 -11 28 43 38 228 44 99 3 181 6 182 7 9 7 1445 -2 1452 -10z" style="fill: rgb(255, 255, 255);"/>
  </g>
</svg>
