<svg enable-background="new 0 0 32 32" viewBox="0 0 32 32" xmlns="http://www.w3.org/2000/svg"><circle clip-rule="evenodd" cx="16" cy="16" fill="#8dc351" fill-rule="evenodd" r="16"/><path d="m21.2 10.5c-.8-2-2.7-2.1-5-1.7l-.8-2.8-1.7.5.8 2.7c-.4.1-.9.3-1.4.4l-.8-2.8-1.7.5.8 2.8c-.4.1-.7.2-1.1.3l-2.3.8.5 1.8s1.3-.4 1.2-.4c.7-.2 1 .1 1.2.5l.9 3.2h.2l-.2.1 1.3 4.5c0 .2 0 .6-.5.8 0 0-1.2.4-1.2.4l.2 2.1 2.2-.6c.4-.1.8-.2 1.2-.3l.8 2.8 1.7-.5-.8-2.8c.5-.1.9-.2 1.4-.4l.8 2.8 1.7-.5-.8-2.8c2.8-1 4.6-2.3 4.1-5.1-.4-2.2-1.7-2.9-3.5-2.8 1-1 1.4-2 .8-3.5zm-.6 6.8c.6 2.1-3.1 2.9-4.3 3.3l-1.1-3.8c1.2-.3 4.7-1.7 5.4.5zm-2.4-5.1c.6 1.9-2.5 2.6-3.5 2.9l-1-3.4c1-.3 4-1.5 4.5.5z" fill="#fff"/></svg>