<svg width="16" height="16" viewBox="0 0 16 16" fill="none" xmlns="http://www.w3.org/2000/svg">
<path d="M8 16C12.4183 16 16 12.4183 16 8C16 3.58172 12.4183 0 8 0C3.58172 0 0 3.58172 0 8C0 12.4183 3.58172 16 8 16Z" fill="#627EEA"/>
<path d="M8.25 2V6.435L11.9985 8.11L8.25 2Z" fill="white" fill-opacity="0.602"/>
<path d="M8.249 2L4.5 8.11L8.249 6.435V2Z" fill="white"/>
<path d="M8.25 10.9846V13.9981L12.001 8.80859L8.25 10.9846Z" fill="white" fill-opacity="0.602"/>
<path d="M8.249 13.9981V10.9841L4.5 8.80859L8.249 13.9981Z" fill="white"/>
<path d="M8.25 10.286L11.9985 8.10955L8.25 6.43555V10.286Z" fill="white" fill-opacity="0.2"/>
<path d="M4.5 8.10955L8.249 10.286V6.43555L4.5 8.10955Z" fill="white" fill-opacity="0.602"/>
</svg>
