<svg width="1398" height="1398" viewBox="0 0 1398 1398" fill="none" xmlns="http://www.w3.org/2000/svg">
<path d="M699 1398C1085.05 1398 1398 1085.05 1398 699C1398 312.953 1085.05 0 699 0C312.953 0 0 312.953 0 699C0 1085.05 312.953 1398 699 1398Z" fill="#2A5ADA"/>
<path d="M699 262.125L620.406 308.215L406.294 434.472L327.656 480.562V917.438L406.25 963.528L622.372 1089.78L700.966 1135.88L779.56 1089.78L991.75 963.528L1070.34 917.438V480.562L991.75 434.472L777.594 308.215L699 262.125ZM484.844 825.257V572.743L699 446.486L913.156 572.743V825.257L699 951.514L484.844 825.257Z" fill="white"/>
</svg>
