<svg width="512" height="512" viewBox="0 0 512 512" fill="none" xmlns="http://www.w3.org/2000/svg">
<rect x="85.332" y="106.668" width="341.333" height="320" fill="white"/>
<path d="M256 0C114.624 0 0 114.624 0 256C0 397.376 114.624 512 256 512C397.376 512 512 397.376 512 256C512 114.624 397.376 0 256 0ZM168.576 142.869H343.424C375.531 142.869 395.947 177.6 379.797 205.589L271.872 392.576C270.26 395.357 267.945 397.666 265.159 399.271C262.373 400.876 259.215 401.721 256 401.721C252.785 401.721 249.627 400.876 246.841 399.271C244.055 397.666 241.74 395.357 240.128 392.576L132.245 205.589C116.075 177.557 136.448 142.869 168.576 142.869ZM271.915 174.784V336.491L295.424 291.093L352.085 189.632C352.953 188.116 353.405 186.399 353.396 184.653C353.387 182.906 352.917 181.193 352.034 179.687C351.151 178.18 349.886 176.934 348.367 176.073C346.847 175.212 345.128 174.767 343.381 174.784H271.915ZM168.533 174.827C166.791 174.808 165.074 175.249 163.557 176.106C162.04 176.963 160.776 178.206 159.893 179.708C159.01 181.21 158.539 182.919 158.528 184.662C158.516 186.404 158.965 188.119 159.829 189.632L216.533 291.051L240.043 336.491V174.827H168.533Z" fill="#3F97E4"/>
</svg>
